<?xml version="1.0" encoding="UTF-8"?>
<svg width="256px" height="256px" viewBox="0 0 256 256" version="1.1" xmlns="http://www.w3.org/2000/svg" xmlns:xlink="http://www.w3.org/1999/xlink">
    <!-- Generator: Sketch 51.3 (57544) - http://www.bohemiancoding.com/sketch -->
    <title>template_icon</title>
    <desc>Created with Sketch.</desc>
    <defs></defs>
    <g id="template_icon" stroke="none" stroke-width="1" fill="none" fill-rule="evenodd">
        <circle id="Oval" fill="#000000" cx="128" cy="128" r="128"></circle>
        <g id="dora_symbol" transform="translate(38.000000, 80.000000)">
            <g id="coding" transform="translate(0.409091, 0.030268)">
                <path d="M56.2045001,6.61328492 L48.2738039,0.953620779 C45.8601138,-0.535764529 43.1016105,-0.237887437 41.0327333,1.54937496 L1.03443864,45.0394252 C-0.344812881,46.5288105 -0.344812881,48.911827 1.03443864,50.6990894 L41.3775461,93.8912625 C43.1016105,95.6785249 46.2049265,96.274279 48.6186166,94.4870167 L56.549313,88.8273526 C58.9630031,87.3379673 59.3078161,84.3591967 57.2389389,82.5719344 L24.8265276,47.7203187 L57.5837516,12.8687031 C58.9630031,11.0814407 58.6181902,8.40054717 56.2045001,6.61328492 Z" id="Path" fill="#FFFFFF" fill-rule="nonzero"></path>
                <path d="M178.498029,44.8670693 L138.154921,1.67489617 C136.430857,-0.112366232 133.327541,-0.708120265 130.913851,1.07914198 L122.983155,6.73880612 C120.569464,8.22819143 120.224651,11.206962 122.293529,12.9942243 L155.050753,47.84584 L122.293529,82.6974556 C120.569464,84.484718 120.914277,87.4634885 122.983155,88.9528738 L130.913851,94.6125379 C133.327541,96.1019232 136.086044,95.8040461 138.154921,94.0167837 L178.498029,50.5267335 C179.87728,48.4415941 179.87728,46.3564546 178.498029,44.8670693 Z" id="Path" fill="#FFFFFF" fill-rule="nonzero"></path>
                <path d="M98.4667502,0.131343612 C95.6937641,-0.464303155 92.5741548,1.02481361 91.8809082,3.40740037 L66.230787,87.9892314 C65.5375404,90.3718182 67.2706567,92.7544049 70.043643,93.3500516 L80.4423407,95.4348151 C83.2153268,96.0304619 86.3349361,94.5413451 87.0281827,92.1587582 L112.678304,7.57692729 C113.37155,4.89651714 111.638434,2.81175376 108.865448,2.21610699 L98.4667502,0.131343612 Z" id="Path" fill="#009688" fill-rule="nonzero"></path>
            </g>
        </g>
    </g>
</svg>